<?xml version="1.0" encoding="UTF-8"?>
<!DOCTYPE svg PUBLIC "-//W3C//DTD SVG 1.1//EN" "http://www.w3.org/Graphics/SVG/1.1/DTD/svg11.dtd">
<svg xmlns="http://www.w3.org/2000/svg" version="1.1" width="650px" height="75px" style="shape-rendering:geometricPrecision; text-rendering:geometricPrecision; image-rendering:optimizeQuality; fill-rule:evenodd; clip-rule:evenodd" xmlns:xlink="http://www.w3.org/1999/xlink">
<g><path style="opacity:0.95" fill="#fefefe" d="M 232.5,39.5 C 229.35,51.098 226.35,62.7647 223.5,74.5C 216.167,74.5 208.833,74.5 201.5,74.5C 206.875,51.9995 212.708,29.6662 219,7.5C 223.428,18.308 227.928,28.9746 232.5,39.5 Z"/></g>
<g><path style="opacity:0.952" fill="#fdfefe" d="M 276.5,74.5 C 269.5,74.5 262.5,74.5 255.5,74.5C 251.623,63.0726 248.623,51.4059 246.5,39.5C 250.709,28.7061 255.209,18.0394 260,7.5C 265.975,29.7328 271.475,52.0661 276.5,74.5 Z"/></g>
<g><path style="opacity:0.86" fill="#0074d9" d="M 482.5,74.5 C 476.167,74.5 469.833,74.5 463.5,74.5C 465.151,73.0806 466.984,71.7473 469,70.5C 469.667,62.5 469.667,54.5 469,46.5C 464.921,41.3201 460.588,41.3201 456,46.5C 455.333,54.8333 455.333,63.1667 456,71.5C 458.326,71.88 460.159,72.88 461.5,74.5C 455.167,74.5 448.833,74.5 442.5,74.5C 443.474,72.9147 444.974,71.9147 447,71.5C 447.667,55.8333 447.667,40.1667 447,24.5C 439.884,22.8157 440.05,20.9824 447.5,19C 450.063,17.9207 452.729,17.4207 455.5,17.5C 455.334,25.84 455.5,34.1733 456,42.5C 460.914,36.2508 466.914,34.9175 474,38.5C 475.846,41.5687 476.846,44.9021 477,48.5C 477.333,56.1667 477.667,63.8333 478,71.5C 480.026,71.9147 481.526,72.9147 482.5,74.5 Z"/></g>
<g><path style="opacity:0.979" fill="#0975d9" d="M 246.5,39.5 C 248.623,51.4059 251.623,63.0726 255.5,74.5C 244.833,74.5 234.167,74.5 223.5,74.5C 226.35,62.7647 229.35,51.098 232.5,39.5C 234.559,32.1547 236.726,24.8213 239,17.5C 241.51,24.8953 244.01,32.2287 246.5,39.5 Z"/></g>
<g><path style="opacity:0.904" fill="#0073d9" d="M 362.5,74.5 C 354.5,74.5 346.5,74.5 338.5,74.5C 340.408,72.976 342.575,71.6426 345,70.5C 345.667,58.1667 345.667,45.8333 345,33.5C 338.821,47.1883 332.655,60.8549 326.5,74.5C 325.5,74.5 324.5,74.5 323.5,74.5C 316.741,60.6463 310.241,46.6463 304,32.5C 303.333,44.8333 303.333,57.1667 304,69.5C 304.374,70.4162 304.874,71.2496 305.5,72C 308.051,72.0023 310.051,72.8356 311.5,74.5C 304.833,74.5 298.167,74.5 291.5,74.5C 292.953,72.771 294.953,71.771 297.5,71.5C 297.833,70.8333 298.167,70.1667 298.5,69.5C 299.965,54.4706 299.798,39.4706 298,24.5C 296.211,22.771 294.044,22.1043 291.5,22.5C 291.5,21.5 291.5,20.5 291.5,19.5C 297.093,19.1934 302.593,19.5268 308,20.5C 314.333,34.1667 320.667,47.8333 327,61.5C 333.46,47.5851 339.626,33.5851 345.5,19.5C 351.167,19.5 356.833,19.5 362.5,19.5C 362.5,20.5 362.5,21.5 362.5,22.5C 359.305,21.9607 356.805,22.9607 355,25.5C 354.333,40.1667 354.333,54.8333 355,69.5C 355.374,70.4162 355.874,71.2496 356.5,72C 359.051,72.0023 361.051,72.8356 362.5,74.5 Z"/></g>
<g><path style="opacity:0.922" fill="#0073d9" d="M 398.5,74.5 C 396.167,74.5 393.833,74.5 391.5,74.5C 391.66,72.8008 391.494,71.1341 391,69.5C 389.27,71.4019 387.437,73.0686 385.5,74.5C 381.5,74.5 377.5,74.5 373.5,74.5C 371.73,72.8867 370.564,70.8867 370,68.5C 369.667,59.5 369.333,50.5 369,41.5C 367.556,39.8446 365.722,39.178 363.5,39.5C 363.5,38.5 363.5,37.5 363.5,36.5C 367.833,36.5 372.167,36.5 376.5,36.5C 376.13,46.8894 376.63,57.2227 378,67.5C 379.441,68.87 381.108,69.87 383,70.5C 385.835,69.0836 388.502,67.417 391,65.5C 391.667,57.8333 391.667,50.1667 391,42.5C 390.072,39.9648 388.238,38.9648 385.5,39.5C 385.5,38.5 385.5,37.5 385.5,36.5C 389.833,36.5 394.167,36.5 398.5,36.5C 398.235,47.5383 398.568,58.5383 399.5,69.5C 401.288,69.2148 402.955,69.5481 404.5,70.5C 402.781,72.3522 400.781,73.6855 398.5,74.5 Z"/></g>
<g><path style="opacity:0.876" fill="#0074d9" d="M 430.5,74.5 C 425.5,74.5 420.5,74.5 415.5,74.5C 406.79,66.4692 404.624,56.8025 409,45.5C 415.538,36.1209 424.038,33.9543 434.5,39C 437.867,42.1328 438.201,45.4661 435.5,49C 434.167,49.6667 432.833,49.6667 431.5,49C 429.325,46.5182 427.658,43.6848 426.5,40.5C 422.089,39.1117 418.589,40.445 416,44.5C 413.024,52.9412 414.524,60.4412 420.5,67C 424.167,69 427.833,69 431.5,67C 433.631,64.552 435.631,62.052 437.5,59.5C 438.512,61.8369 438.345,64.1703 437,66.5C 434.999,69.3307 432.833,71.9974 430.5,74.5 Z"/></g>
<g><path style="opacity:0.81" fill="#fefffe" d="M 578.5,74.5 C 575.5,74.5 572.5,74.5 569.5,74.5C 568.91,73.234 568.41,71.9007 568,70.5C 566.603,72.0703 565.103,73.4036 563.5,74.5C 559.5,74.5 555.5,74.5 551.5,74.5C 545.79,66.7496 547.123,60.2496 555.5,55C 559.5,53.3333 563.5,51.6667 567.5,50C 569.725,42.6232 567.059,39.2899 559.5,40C 557.883,42.3695 556.883,45.0362 556.5,48C 554.522,50.9969 552.355,51.1636 550,48.5C 548.655,42.6907 550.822,38.8574 556.5,37C 561.167,36.3333 565.833,36.3333 570.5,37C 572.667,37.8333 574.167,39.3333 575,41.5C 575.944,50.8192 576.777,60.1525 577.5,69.5C 579.258,68.8721 580.758,67.8721 582,66.5C 582.167,67.1667 582.333,67.8333 582.5,68.5C 581.568,70.7655 580.235,72.7655 578.5,74.5 Z M 567.5,53.5 C 568.647,57.6463 568.814,61.9796 568,66.5C 562.583,72.4022 558.416,71.7356 555.5,64.5C 557.615,58.7159 561.615,55.0492 567.5,53.5 Z"/></g>
<g><path style="opacity:0.806" fill="#fefffe" d="M 602.5,74.5 C 595.833,74.5 589.167,74.5 582.5,74.5C 583.841,72.88 585.674,71.88 588,71.5C 588.667,62.5 588.667,53.5 588,44.5C 586.301,43.5939 584.467,43.2606 582.5,43.5C 582.5,42.5 582.5,41.5 582.5,40.5C 587.114,38.9616 591.781,37.6283 596.5,36.5C 596.338,38.5273 596.505,40.5273 597,42.5C 599.735,36.8783 603.901,35.3783 609.5,38C 610.833,40.3333 610.833,42.6667 609.5,45C 606.484,45.664 603.651,45.164 601,43.5C 599.233,44.34 597.899,45.6734 597,47.5C 596.333,55.1667 596.333,62.8333 597,70.5C 599.131,71.6148 600.965,72.9481 602.5,74.5 Z"/></g>
<g><path style="opacity:0.836" fill="#fefffe" d="M 637.5,74.5 C 632.167,74.5 626.833,74.5 621.5,74.5C 613.902,67.4684 611.402,58.8017 614,48.5C 618.073,38.2123 625.573,34.379 636.5,37C 642.098,39.7655 645.098,44.2655 645.5,50.5C 636.859,51.498 628.192,51.8314 619.5,51.5C 619.412,59.1694 622.745,64.6694 629.5,68C 636.481,69.0084 641.148,66.1751 643.5,59.5C 644.308,59.8076 644.975,60.3076 645.5,61C 644.238,66.36 641.572,70.86 637.5,74.5 Z M 627.5,39.5 C 632.33,40.6589 634.996,43.6589 635.5,48.5C 630.156,48.666 624.823,48.4994 619.5,48C 621.021,43.9823 623.687,41.149 627.5,39.5 Z"/></g>
<g><path style="opacity:0.796" fill="#fefffe" d="M 528.5,74.5 C 526.833,74.5 525.167,74.5 523.5,74.5C 521.291,67.7448 518.791,61.0781 516,54.5C 512.563,61.0409 509.396,67.7076 506.5,74.5C 505.167,74.5 503.833,74.5 502.5,74.5C 498.511,63.0272 493.844,51.8605 488.5,41C 487.552,40.5172 486.552,40.3505 485.5,40.5C 485.5,39.5 485.5,38.5 485.5,37.5C 490.875,37.1718 496.208,37.5052 501.5,38.5C 500.249,39.6311 499.249,40.9644 498.5,42.5C 500.891,49.614 503.558,56.614 506.5,63.5C 509.407,58.7842 511.74,53.7842 513.5,48.5C 512.976,44.0501 510.643,41.3834 506.5,40.5C 506.5,39.5 506.5,38.5 506.5,37.5C 512.5,37.5 518.5,37.5 524.5,37.5C 524.5,38.5 524.5,39.5 524.5,40.5C 522.335,40.1159 520.668,40.7826 519.5,42.5C 522.04,49.6201 524.873,56.6201 528,63.5C 531.012,55.964 533.512,48.2974 535.5,40.5C 534.5,40.5 533.5,40.5 532.5,40.5C 532.5,39.5 532.5,38.5 532.5,37.5C 536.5,37.5 540.5,37.5 544.5,37.5C 542.719,40.0444 540.886,42.711 539,45.5C 535.194,55.0874 531.694,64.7541 528.5,74.5 Z"/></g>
</svg>
